<svg width="123" height="37" viewBox="0 0 123 37" fill="none" xmlns="http://www.w3.org/2000/svg">
<path d="M44.7344 14.5371C45.3789 13.7559 46.2708 13.3652 47.4102 13.3652C48.3216 13.3652 49.0866 13.5768 49.7051 14C50.3236 14.4167 50.7858 14.9896 51.0918 15.7188C51.3262 16.2721 51.4434 16.9427 51.4434 17.7305V24H49.7441V17.7793C49.7441 16.9329 49.526 16.2559 49.0898 15.748C48.6536 15.2402 48.0417 14.9863 47.2539 14.9863C46.681 14.9863 46.1992 15.1263 45.8086 15.4062C45.418 15.6862 45.1315 16.0638 44.9492 16.5391C44.806 16.8906 44.7344 17.304 44.7344 17.7793V24H43.0449V9.72266H44.7344V14.5371ZM62.0586 21.5098C61.694 22.3561 61.1699 23.0234 60.4863 23.5117C59.8092 24 58.9661 24.2441 57.957 24.2441C57.3971 24.2441 56.8828 24.1628 56.4141 24C55.9453 23.8372 55.5384 23.6094 55.1934 23.3164C54.8548 23.0169 54.5651 22.6816 54.3242 22.3105C54.0833 21.9329 53.888 21.5163 53.7383 21.0605C53.5169 20.3965 53.4062 19.6608 53.4062 18.8535C53.4062 17.6165 53.6341 16.5586 54.0898 15.6797C54.5521 14.7943 55.2031 14.153 56.043 13.7559C56.5833 13.502 57.1758 13.375 57.8203 13.375C58.3802 13.375 58.8913 13.4629 59.3535 13.6387C59.8158 13.8145 60.2096 14.0618 60.5352 14.3809C60.8607 14.6934 61.1341 15.0449 61.3555 15.4355C61.5833 15.8262 61.7721 16.2591 61.9219 16.7344C62.1367 17.4635 62.2441 18.2936 62.2441 19.2246H55.1445C55.1576 20.2663 55.3984 21.1029 55.8672 21.7344C56.3424 22.3594 57.0488 22.6719 57.9863 22.6719C59.1387 22.6719 59.9557 22.125 60.4375 21.0312L62.0586 21.5098ZM60.3691 17.6914C60.1543 16.3568 59.6107 15.5039 58.7383 15.1328C58.4583 15.0156 58.1621 14.957 57.8496 14.957C57.3092 14.957 56.847 15.1068 56.4629 15.4062C56.0853 15.6992 55.7891 16.0801 55.5742 16.5488C55.4115 16.8874 55.304 17.2682 55.252 17.6914H60.3691ZM64.334 24.0098V9.77148H66.0234V24.0098H64.334ZM72.2539 24.2441C71.7461 24.2441 71.2741 24.1465 70.8379 23.9512C70.4017 23.7559 70.0339 23.4987 69.7344 23.1797V28.2676H68.0449V13.5898H69.6367L69.7051 14.4785C70.2064 13.7363 70.9941 13.3652 72.0684 13.3652C72.6152 13.3652 73.1165 13.4499 73.5723 13.6191C74.028 13.7884 74.4219 14.026 74.7539 14.332C75.0859 14.6315 75.3659 14.9701 75.5938 15.3477C75.8281 15.7253 76.0169 16.1419 76.1602 16.5977C76.3815 17.2747 76.4922 18.0267 76.4922 18.8535C76.4922 20.084 76.2643 21.1387 75.8086 22.0176C75.3594 22.89 74.7214 23.515 73.8945 23.8926C73.3802 24.127 72.8333 24.2441 72.2539 24.2441ZM69.7344 19.8789C69.7344 20.5039 69.8711 21.0443 70.1445 21.5C70.418 21.9557 70.7826 22.2845 71.2383 22.4863C71.5182 22.61 71.7949 22.6719 72.0684 22.6719C73.2988 22.6719 74.1224 21.9525 74.5391 20.5137C74.6758 20.0384 74.7441 19.485 74.7441 18.8535C74.7441 18.0007 74.6009 17.2585 74.3145 16.627C74.028 15.9954 73.6178 15.5299 73.084 15.2305C72.7585 15.0547 72.4134 14.9668 72.0488 14.9668C71.8665 14.9668 71.694 14.9863 71.5312 15.0254C71.3685 15.0579 71.2188 15.11 71.082 15.1816C70.9453 15.2467 70.8184 15.3249 70.7012 15.416C70.584 15.5072 70.4766 15.6113 70.3789 15.7285C70.2878 15.8392 70.2031 15.9596 70.125 16.0898C70.0534 16.2135 69.9883 16.347 69.9297 16.4902C69.7995 16.8288 69.7344 17.2194 69.7344 17.6621V19.8789ZM85.6816 13.6875L87.8887 21.793L89.959 13.6875H91.7949L88.7773 24.0098H87L84.8613 16.0703L82.752 24.0098H80.9746L77.9473 13.6875H79.793L81.8633 21.793L84.0703 13.6875H85.6816ZM97.3418 14.8789C96.2611 14.8789 95.5938 15.4258 95.3398 16.5195L93.6504 16.0605C93.9303 15.2337 94.3893 14.5762 95.0273 14.0879C95.6654 13.5996 96.4759 13.3555 97.459 13.3555C98.084 13.3555 98.6471 13.4596 99.1484 13.668C99.6562 13.8698 100.076 14.1465 100.408 14.498C100.74 14.8431 101.004 15.2565 101.199 15.7383C101.421 16.2721 101.531 16.9036 101.531 17.6328V24.0098H99.8711L99.793 22.9648C99.0182 23.7982 98.0417 24.2148 96.8633 24.2148C96.043 24.2148 95.3366 24.0456 94.7441 23.707C94.1582 23.362 93.7285 22.8932 93.4551 22.3008C93.2728 21.8971 93.1816 21.4512 93.1816 20.9629C93.1816 20.5137 93.2533 20.1035 93.3965 19.7324C93.5397 19.3548 93.7383 19.0326 93.9922 18.7656C94.2461 18.4922 94.5293 18.2643 94.8418 18.082C95.1608 17.8932 95.5059 17.7435 95.877 17.6328C96.3978 17.4766 96.9316 17.3984 97.4785 17.3984C98.3118 17.3984 99.0605 17.5677 99.7246 17.9062V17.6133C99.7246 16.7409 99.5293 16.0671 99.1387 15.5918C98.748 15.1165 98.1491 14.8789 97.3418 14.8789ZM97.5273 18.9219C96.7656 18.9219 96.1536 19.0879 95.6914 19.4199C95.2357 19.7454 95.0078 20.2435 95.0078 20.9141C95.0078 22.0729 95.7467 22.6523 97.2246 22.6523C97.7975 22.6523 98.2826 22.5189 98.6797 22.252C99.0833 21.9785 99.373 21.6172 99.5488 21.168C99.666 20.862 99.7246 20.5332 99.7246 20.1816V19.4785C99.2103 19.1074 98.4779 18.9219 97.5273 18.9219ZM107.84 21.9004L110.76 13.6777H112.605L108.719 24H106.961L103.055 13.6777H104.9L107.84 21.9004ZM122.801 21.5098C122.436 22.3561 121.912 23.0234 121.229 23.5117C120.551 24 119.708 24.2441 118.699 24.2441C118.139 24.2441 117.625 24.1628 117.156 24C116.688 23.8372 116.281 23.6094 115.936 23.3164C115.597 23.0169 115.307 22.6816 115.066 22.3105C114.826 21.9329 114.63 21.5163 114.48 21.0605C114.259 20.3965 114.148 19.6608 114.148 18.8535C114.148 17.6165 114.376 16.5586 114.832 15.6797C115.294 14.7943 115.945 14.153 116.785 13.7559C117.326 13.502 117.918 13.375 118.562 13.375C119.122 13.375 119.633 13.4629 120.096 13.6387C120.558 13.8145 120.952 14.0618 121.277 14.3809C121.603 14.6934 121.876 15.0449 122.098 15.4355C122.326 15.8262 122.514 16.2591 122.664 16.7344C122.879 17.4635 122.986 18.2936 122.986 19.2246H115.887C115.9 20.2663 116.141 21.1029 116.609 21.7344C117.085 22.3594 117.791 22.6719 118.729 22.6719C119.881 22.6719 120.698 22.125 121.18 21.0312L122.801 21.5098ZM121.111 17.6914C120.896 16.3568 120.353 15.5039 119.48 15.1328C119.201 15.0156 118.904 14.957 118.592 14.957C118.051 14.957 117.589 15.1068 117.205 15.4062C116.827 15.6992 116.531 16.0801 116.316 16.5488C116.154 16.8874 116.046 17.2682 115.994 17.6914H121.111Z" fill="white"/>
<path fill-rule="evenodd" clip-rule="evenodd" d="M17 16.5034C16.022 16.5034 15.2292 17.2963 15.2292 18.2743C15.2292 19.2523 16.022 20.0451 17 20.0451C17.978 20.0451 18.7708 19.2523 18.7708 18.2743C18.7708 17.2963 17.978 16.5034 17 16.5034ZM13.1042 18.2743C13.1042 16.1226 14.8484 14.3784 17 14.3784C19.1516 14.3784 20.8958 16.1226 20.8958 18.2743C20.8958 20.4259 19.1516 22.1701 17 22.1701C14.8484 22.1701 13.1042 20.4259 13.1042 18.2743Z" fill="white"/>
<path fill-rule="evenodd" clip-rule="evenodd" d="M17 10.8368C15.529 10.8368 14.091 11.273 12.868 12.0902C11.6449 12.9074 10.6916 14.069 10.1287 15.428C9.56572 16.7871 9.41844 18.2825 9.70541 19.7252C9.99239 21.168 10.7007 22.4932 11.7409 23.5334C12.1558 23.9483 12.1558 24.621 11.7409 25.036C11.326 25.4509 10.6532 25.4509 10.2383 25.036C8.90096 23.6986 7.99022 21.9948 7.62125 20.1398C7.25227 18.2849 7.44164 16.3622 8.16541 14.6148C8.88917 12.8675 10.1148 11.3741 11.6874 10.3233C13.2599 9.27259 15.1087 8.71176 17 8.71176C18.8913 8.71176 20.7401 9.27259 22.3126 10.3233C23.8852 11.3741 25.1108 12.8675 25.8346 14.6148C26.5584 16.3622 26.7477 18.2849 26.3788 20.1398C26.0098 21.9948 25.0991 23.6986 23.7617 25.036C23.3468 25.4509 22.674 25.4509 22.2591 25.036C21.8442 24.621 21.8442 23.9483 22.2591 23.5334C23.2993 22.4932 24.0076 21.168 24.2946 19.7252C24.5816 18.2825 24.4343 16.7871 23.8714 15.428C23.3084 14.069 22.3551 12.9074 21.1321 12.0902C19.909 11.273 18.471 10.8368 17 10.8368Z" fill="white"/>
<path fill-rule="evenodd" clip-rule="evenodd" d="M17.0001 5.3125C14.4365 5.3125 11.9305 6.0727 9.79893 7.49695C7.66738 8.92121 6.00604 10.9456 5.02499 13.314C4.04395 15.6825 3.78726 18.2887 4.28739 20.803C4.78753 23.3173 6.02201 25.6269 7.83475 27.4396C8.24968 27.8546 8.24968 28.5273 7.83475 28.9422C7.41982 29.3572 6.74708 29.3572 6.33215 28.9422C4.22223 26.8323 2.78535 24.1441 2.20322 21.2176C1.6211 18.291 1.91987 15.2576 3.06175 12.5008C4.20363 9.74407 6.13734 7.38784 8.61835 5.73008C11.0994 4.07232 14.0162 3.1875 17.0001 3.1875C19.984 3.1875 22.9009 4.07232 25.3819 5.73008C27.8629 7.38784 29.7966 9.74407 30.9385 12.5008C32.0804 15.2576 32.3791 18.291 31.797 21.2176C31.2149 24.1441 29.778 26.8323 27.6681 28.9422C27.2531 29.3572 26.5804 29.3572 26.1655 28.9422C25.7505 28.5273 25.7505 27.8546 26.1655 27.4396C27.9782 25.6269 29.2127 23.3173 29.7128 20.803C30.213 18.2887 29.9563 15.6825 28.9752 13.314C27.9942 10.9456 26.3328 8.92121 24.2013 7.49695C22.0697 6.0727 19.5637 5.3125 17.0001 5.3125Z" fill="white"/>
</svg>
