<svg width="400" height="400" viewBox="0 0 400 400" fill="none" xmlns="http://www.w3.org/2000/svg">
<rect width="400" height="400" fill="#FF342A"/>
<path fill-rule="evenodd" clip-rule="evenodd" d="M200 194.158C188.494 194.158 179.167 203.485 179.167 214.991C179.167 226.497 188.494 235.825 200 235.825C211.506 235.825 220.833 226.497 220.833 214.991C220.833 203.485 211.506 194.158 200 194.158ZM154.167 214.991C154.167 189.678 174.687 169.158 200 169.158C225.313 169.158 245.833 189.678 245.833 214.991C245.833 240.304 225.313 260.825 200 260.825C174.687 260.825 154.167 240.304 154.167 214.991Z" fill="white"/>
<path fill-rule="evenodd" clip-rule="evenodd" d="M200 127.491C182.694 127.491 165.777 132.623 151.388 142.238C136.998 151.852 125.783 165.518 119.161 181.506C112.538 197.495 110.805 215.088 114.181 232.062C117.558 249.035 125.891 264.626 138.128 276.863C143.01 281.745 143.01 289.659 138.128 294.541C133.247 299.422 125.332 299.422 120.451 294.541C104.717 278.807 94.0026 258.762 89.6617 236.939C85.3209 215.116 87.5488 192.496 96.0636 171.939C104.578 151.383 118.998 133.813 137.498 121.451C155.999 109.089 177.75 102.491 200 102.491C222.25 102.491 244.001 109.089 262.502 121.451C281.002 133.813 295.422 151.383 303.937 171.939C312.451 192.496 314.679 215.116 310.338 236.939C305.998 258.762 295.283 278.807 279.55 294.541C274.668 299.422 266.753 299.422 261.872 294.541C256.99 289.659 256.99 281.745 261.872 276.863C274.109 264.626 282.443 249.035 285.819 232.062C289.195 215.088 287.462 197.495 280.84 181.506C274.217 165.518 263.002 151.852 248.612 142.238C234.223 132.623 217.306 127.491 200 127.491Z" fill="white"/>
<path fill-rule="evenodd" clip-rule="evenodd" d="M200.001 62.5C169.841 62.5 140.359 71.4435 115.282 88.1995C90.2045 104.955 70.6593 128.771 59.1176 156.636C47.5758 184.5 44.556 215.161 50.4399 244.741C56.3238 274.322 70.8472 301.493 92.1735 322.819C97.0551 327.701 97.0551 335.615 92.1735 340.497C87.292 345.378 79.3774 345.378 74.4959 340.497C49.6733 315.674 32.7688 284.048 25.9203 249.618C19.0718 215.188 22.5867 179.501 36.0206 147.068C49.4545 114.636 72.204 86.9157 101.392 67.4127C130.581 47.9097 164.897 37.5 200.001 37.5C235.106 37.5 269.422 47.9097 298.61 67.4127C327.799 86.9157 350.548 114.636 363.982 147.068C377.416 179.501 380.931 215.188 374.082 249.618C367.234 284.048 350.329 315.674 325.507 340.497C320.625 345.378 312.711 345.378 307.829 340.497C302.948 335.615 302.948 327.701 307.829 322.819C329.155 301.493 343.679 274.322 349.563 244.741C355.447 215.161 352.427 184.5 340.885 156.636C329.343 128.771 309.798 104.955 284.721 88.1995C259.644 71.4435 230.161 62.5 200.001 62.5Z" fill="white"/>
<path d="M125.469 318.074C126.758 316.512 128.542 315.73 130.82 315.73C132.643 315.73 134.173 316.154 135.41 317C136.647 317.833 137.572 318.979 138.184 320.438C138.652 321.544 138.887 322.885 138.887 324.461V337H135.488V324.559C135.488 322.866 135.052 321.512 134.18 320.496C133.307 319.48 132.083 318.973 130.508 318.973C129.362 318.973 128.398 319.253 127.617 319.812C126.836 320.372 126.263 321.128 125.898 322.078C125.612 322.781 125.469 323.608 125.469 324.559V337H122.09V308.445H125.469V318.074ZM160.117 332.02C159.388 333.712 158.34 335.047 156.973 336.023C155.618 337 153.932 337.488 151.914 337.488C150.794 337.488 149.766 337.326 148.828 337C147.891 336.674 147.077 336.219 146.387 335.633C145.71 335.034 145.13 334.363 144.648 333.621C144.167 332.866 143.776 332.033 143.477 331.121C143.034 329.793 142.812 328.322 142.812 326.707C142.812 324.233 143.268 322.117 144.18 320.359C145.104 318.589 146.406 317.306 148.086 316.512C149.167 316.004 150.352 315.75 151.641 315.75C152.76 315.75 153.783 315.926 154.707 316.277C155.632 316.629 156.419 317.124 157.07 317.762C157.721 318.387 158.268 319.09 158.711 319.871C159.167 320.652 159.544 321.518 159.844 322.469C160.273 323.927 160.488 325.587 160.488 327.449H146.289C146.315 329.533 146.797 331.206 147.734 332.469C148.685 333.719 150.098 334.344 151.973 334.344C154.277 334.344 155.911 333.25 156.875 331.062L160.117 332.02ZM156.738 324.383C156.309 321.714 155.221 320.008 153.477 319.266C152.917 319.031 152.324 318.914 151.699 318.914C150.618 318.914 149.694 319.214 148.926 319.812C148.171 320.398 147.578 321.16 147.148 322.098C146.823 322.775 146.608 323.536 146.504 324.383H156.738ZM164.668 337.02V308.543H168.047V337.02H164.668ZM180.508 337.488C179.492 337.488 178.548 337.293 177.676 336.902C176.803 336.512 176.068 335.997 175.469 335.359V345.535H172.09V316.18H175.273L175.41 317.957C176.413 316.473 177.988 315.73 180.137 315.73C181.23 315.73 182.233 315.9 183.145 316.238C184.056 316.577 184.844 317.052 185.508 317.664C186.172 318.263 186.732 318.94 187.188 319.695C187.656 320.451 188.034 321.284 188.32 322.195C188.763 323.549 188.984 325.053 188.984 326.707C188.984 329.168 188.529 331.277 187.617 333.035C186.719 334.78 185.443 336.03 183.789 336.785C182.76 337.254 181.667 337.488 180.508 337.488ZM175.469 328.758C175.469 330.008 175.742 331.089 176.289 332C176.836 332.911 177.565 333.569 178.477 333.973C179.036 334.22 179.59 334.344 180.137 334.344C182.598 334.344 184.245 332.905 185.078 330.027C185.352 329.077 185.488 327.97 185.488 326.707C185.488 325.001 185.202 323.517 184.629 322.254C184.056 320.991 183.236 320.06 182.168 319.461C181.517 319.109 180.827 318.934 180.098 318.934C179.733 318.934 179.388 318.973 179.062 319.051C178.737 319.116 178.438 319.22 178.164 319.363C177.891 319.493 177.637 319.65 177.402 319.832C177.168 320.014 176.953 320.223 176.758 320.457C176.576 320.678 176.406 320.919 176.25 321.18C176.107 321.427 175.977 321.694 175.859 321.98C175.599 322.658 175.469 323.439 175.469 324.324V328.758ZM207.363 316.375L211.777 332.586L215.918 316.375H219.59L213.555 337.02H210L205.723 321.141L201.504 337.02H197.949L191.895 316.375H195.586L199.727 332.586L204.141 316.375H207.363ZM230.684 318.758C228.522 318.758 227.188 319.852 226.68 322.039L223.301 321.121C223.861 319.467 224.779 318.152 226.055 317.176C227.331 316.199 228.952 315.711 230.918 315.711C232.168 315.711 233.294 315.919 234.297 316.336C235.312 316.74 236.152 317.293 236.816 317.996C237.48 318.686 238.008 319.513 238.398 320.477C238.841 321.544 239.062 322.807 239.062 324.266V337.02H235.742L235.586 334.93C234.036 336.596 232.083 337.43 229.727 337.43C228.086 337.43 226.673 337.091 225.488 336.414C224.316 335.724 223.457 334.786 222.91 333.602C222.546 332.794 222.363 331.902 222.363 330.926C222.363 330.027 222.507 329.207 222.793 328.465C223.079 327.71 223.477 327.065 223.984 326.531C224.492 325.984 225.059 325.529 225.684 325.164C226.322 324.786 227.012 324.487 227.754 324.266C228.796 323.953 229.863 323.797 230.957 323.797C232.624 323.797 234.121 324.135 235.449 324.812V324.227C235.449 322.482 235.059 321.134 234.277 320.184C233.496 319.233 232.298 318.758 230.684 318.758ZM231.055 326.844C229.531 326.844 228.307 327.176 227.383 327.84C226.471 328.491 226.016 329.487 226.016 330.828C226.016 333.146 227.493 334.305 230.449 334.305C231.595 334.305 232.565 334.038 233.359 333.504C234.167 332.957 234.746 332.234 235.098 331.336C235.332 330.724 235.449 330.066 235.449 329.363V327.957C234.421 327.215 232.956 326.844 231.055 326.844ZM251.68 332.801L257.52 316.355H261.211L253.438 337H249.922L242.109 316.355H245.801L251.68 332.801ZM281.602 332.02C280.872 333.712 279.824 335.047 278.457 336.023C277.103 337 275.417 337.488 273.398 337.488C272.279 337.488 271.25 337.326 270.312 337C269.375 336.674 268.561 336.219 267.871 335.633C267.194 335.034 266.615 334.363 266.133 333.621C265.651 332.866 265.26 332.033 264.961 331.121C264.518 329.793 264.297 328.322 264.297 326.707C264.297 324.233 264.753 322.117 265.664 320.359C266.589 318.589 267.891 317.306 269.57 316.512C270.651 316.004 271.836 315.75 273.125 315.75C274.245 315.75 275.267 315.926 276.191 316.277C277.116 316.629 277.904 317.124 278.555 317.762C279.206 318.387 279.753 319.09 280.195 319.871C280.651 320.652 281.029 321.518 281.328 322.469C281.758 323.927 281.973 325.587 281.973 327.449H267.773C267.799 329.533 268.281 331.206 269.219 332.469C270.169 333.719 271.582 334.344 273.457 334.344C275.762 334.344 277.396 333.25 278.359 331.062L281.602 332.02ZM278.223 324.383C277.793 321.714 276.706 320.008 274.961 319.266C274.401 319.031 273.809 318.914 273.184 318.914C272.103 318.914 271.178 319.214 270.41 319.812C269.655 320.398 269.062 321.16 268.633 322.098C268.307 322.775 268.092 323.536 267.988 324.383H278.223Z" fill="white"/>
</svg>
