<svg width="410" height="421" viewBox="0 0 410 421" fill="none" xmlns="http://www.w3.org/2000/svg">
<circle cx="205" cy="216" r="205" fill="#1B1B1B"/>
<path fill-rule="evenodd" clip-rule="evenodd" d="M205 194.158C193.494 194.158 184.167 203.485 184.167 214.991C184.167 226.497 193.494 235.825 205 235.825C216.506 235.825 225.833 226.497 225.833 214.991C225.833 203.485 216.506 194.158 205 194.158ZM159.167 214.991C159.167 189.678 179.687 169.158 205 169.158C230.313 169.158 250.833 189.678 250.833 214.991C250.833 240.304 230.313 260.825 205 260.825C179.687 260.825 159.167 240.304 159.167 214.991Z" fill="#FF342A"/>
<path fill-rule="evenodd" clip-rule="evenodd" d="M205 127.491C187.694 127.491 170.777 132.623 156.388 142.238C141.998 151.852 130.783 165.518 124.161 181.506C117.538 197.495 115.805 215.088 119.181 232.062C122.558 249.035 130.891 264.626 143.128 276.863C148.01 281.745 148.01 289.659 143.128 294.541C138.247 299.422 130.332 299.422 125.451 294.541C109.717 278.807 99.0026 258.762 94.6617 236.939C90.3209 215.116 92.5488 192.496 101.064 171.939C109.578 151.383 123.998 133.813 142.498 121.451C160.999 109.089 182.75 102.491 205 102.491C227.25 102.491 249.001 109.089 267.502 121.451C286.002 133.813 300.422 151.383 308.937 171.939C317.451 192.496 319.679 215.116 315.338 236.939C310.998 258.762 300.283 278.807 284.55 294.541C279.668 299.422 271.753 299.422 266.872 294.541C261.99 289.659 261.99 281.745 266.872 276.863C279.109 264.626 287.443 249.035 290.819 232.062C294.195 215.088 292.462 197.495 285.84 181.506C279.217 165.518 268.002 151.852 253.612 142.238C239.223 132.623 222.306 127.491 205 127.491Z" fill="#FF342A"/>
<path fill-rule="evenodd" clip-rule="evenodd" d="M205.001 62.5C174.841 62.5 145.359 71.4435 120.282 88.1995C95.2045 104.955 75.6593 128.771 64.1176 156.636C52.5758 184.5 49.556 215.161 55.4399 244.741C61.3238 274.322 75.8472 301.493 97.1735 322.819C102.055 327.701 102.055 335.615 97.1735 340.497C92.292 345.378 84.3774 345.378 79.4959 340.497C54.6733 315.674 37.7688 284.048 30.9203 249.618C24.0718 215.188 27.5867 179.501 41.0206 147.068C54.4545 114.636 77.204 86.9157 106.392 67.4127C135.581 47.9097 169.897 37.5 205.001 37.5C240.106 37.5 274.422 47.9097 303.61 67.4127C332.799 86.9157 355.548 114.636 368.982 147.068C382.416 179.501 385.931 215.188 379.082 249.618C372.234 284.048 355.329 315.674 330.507 340.497C325.625 345.378 317.711 345.378 312.829 340.497C307.948 335.615 307.948 327.701 312.829 322.819C334.155 301.493 348.679 274.322 354.563 244.741C360.447 215.161 357.427 184.5 345.885 156.636C334.343 128.771 314.798 104.955 289.721 88.1995C264.644 71.4435 235.161 62.5 205.001 62.5Z" fill="#FF342A"/>
</svg>
