<svg width="400" height="400" viewBox="0 0 400 400" fill="none" xmlns="http://www.w3.org/2000/svg">
<rect width="400" height="400" fill="#1B1B1B"/>
<path fill-rule="evenodd" clip-rule="evenodd" d="M200 194.158C188.494 194.158 179.167 203.485 179.167 214.991C179.167 226.497 188.494 235.825 200 235.825C211.506 235.825 220.833 226.497 220.833 214.991C220.833 203.485 211.506 194.158 200 194.158ZM154.167 214.991C154.167 189.678 174.687 169.158 200 169.158C225.313 169.158 245.833 189.678 245.833 214.991C245.833 240.304 225.313 260.825 200 260.825C174.687 260.825 154.167 240.304 154.167 214.991Z" fill="#FF342A"/>
<path fill-rule="evenodd" clip-rule="evenodd" d="M200 127.491C182.694 127.491 165.777 132.623 151.388 142.238C136.998 151.852 125.783 165.518 119.161 181.506C112.538 197.495 110.805 215.088 114.181 232.062C117.558 249.035 125.891 264.626 138.128 276.863C143.01 281.745 143.01 289.659 138.128 294.541C133.247 299.422 125.332 299.422 120.451 294.541C104.717 278.807 94.0026 258.762 89.6617 236.939C85.3209 215.116 87.5488 192.496 96.0636 171.939C104.578 151.383 118.998 133.813 137.498 121.451C155.999 109.089 177.75 102.491 200 102.491C222.25 102.491 244.001 109.089 262.502 121.451C281.002 133.813 295.422 151.383 303.937 171.939C312.451 192.496 314.679 215.116 310.338 236.939C305.998 258.762 295.283 278.807 279.55 294.541C274.668 299.422 266.753 299.422 261.872 294.541C256.99 289.659 256.99 281.745 261.872 276.863C274.109 264.626 282.443 249.035 285.819 232.062C289.195 215.088 287.462 197.495 280.84 181.506C274.217 165.518 263.002 151.852 248.612 142.238C234.223 132.623 217.306 127.491 200 127.491Z" fill="#FF342A"/>
<path fill-rule="evenodd" clip-rule="evenodd" d="M200.001 62.5C169.841 62.5 140.359 71.4435 115.282 88.1995C90.2045 104.955 70.6593 128.771 59.1176 156.636C47.5758 184.5 44.556 215.161 50.4399 244.741C56.3238 274.322 70.8472 301.493 92.1735 322.819C97.0551 327.701 97.0551 335.615 92.1735 340.497C87.292 345.378 79.3774 345.378 74.4959 340.497C49.6733 315.674 32.7688 284.048 25.9203 249.618C19.0718 215.188 22.5867 179.501 36.0206 147.068C49.4545 114.636 72.204 86.9157 101.392 67.4127C130.581 47.9097 164.897 37.5 200.001 37.5C235.106 37.5 269.422 47.9097 298.61 67.4127C327.799 86.9157 350.548 114.636 363.982 147.068C377.416 179.501 380.931 215.188 374.082 249.618C367.234 284.048 350.329 315.674 325.507 340.497C320.625 345.378 312.711 345.378 307.829 340.497C302.948 335.615 302.948 327.701 307.829 322.819C329.155 301.493 343.679 274.322 349.563 244.741C355.447 215.161 352.427 184.5 340.885 156.636C329.343 128.771 309.798 104.955 284.721 88.1995C259.644 71.4435 230.161 62.5 200.001 62.5Z" fill="#FF342A"/>
</svg>
