<svg width="410" height="421" viewBox="0 0 410 421" fill="none" xmlns="http://www.w3.org/2000/svg">
<circle cx="205" cy="216" r="205" fill="#1B1B1B"/>
<path fill-rule="evenodd" clip-rule="evenodd" d="M205 194.158C193.494 194.158 184.167 203.485 184.167 214.991C184.167 226.497 193.494 235.825 205 235.825C216.506 235.825 225.833 226.497 225.833 214.991C225.833 203.485 216.506 194.158 205 194.158ZM159.167 214.991C159.167 189.678 179.687 169.158 205 169.158C230.313 169.158 250.833 189.678 250.833 214.991C250.833 240.304 230.313 260.825 205 260.825C179.687 260.825 159.167 240.304 159.167 214.991Z" fill="#FF342A"/>
<path fill-rule="evenodd" clip-rule="evenodd" d="M205 127.491C187.694 127.491 170.777 132.623 156.388 142.238C141.998 151.852 130.783 165.518 124.161 181.506C117.538 197.495 115.805 215.088 119.181 232.062C122.558 249.035 130.891 264.626 143.128 276.863C148.01 281.745 148.01 289.659 143.128 294.541C138.247 299.422 130.332 299.422 125.451 294.541C109.717 278.807 99.0026 258.762 94.6617 236.939C90.3209 215.116 92.5488 192.496 101.064 171.939C109.578 151.383 123.998 133.813 142.498 121.451C160.999 109.089 182.75 102.491 205 102.491C227.25 102.491 249.001 109.089 267.502 121.451C286.002 133.813 300.422 151.383 308.936 171.939C317.451 192.496 319.679 215.116 315.338 236.939C310.998 258.762 300.283 278.807 284.55 294.541C279.668 299.422 271.753 299.422 266.872 294.541C261.99 289.659 261.99 281.745 266.872 276.863C279.109 264.626 287.443 249.035 290.819 232.062C294.195 215.088 292.462 197.495 285.84 181.506C279.217 165.518 268.002 151.852 253.612 142.238C239.223 132.623 222.306 127.491 205 127.491Z" fill="#FF342A"/>
<path fill-rule="evenodd" clip-rule="evenodd" d="M205.001 62.5C174.841 62.5 145.359 71.4435 120.282 88.1995C95.2045 104.955 75.6593 128.771 64.1175 156.636C52.5758 184.5 49.556 215.161 55.4399 244.741C61.3238 274.322 75.8472 301.493 97.1736 322.819C102.055 327.701 102.055 335.615 97.1736 340.497C92.292 345.378 84.3774 345.378 79.4959 340.497C54.6733 315.674 37.7688 284.048 30.9203 249.618C24.0718 215.188 27.5867 179.501 41.0206 147.068C54.4545 114.636 77.204 86.9157 106.392 67.4127C135.581 47.9097 169.897 37.5 205.001 37.5C240.106 37.5 274.422 47.9097 303.61 67.4127C332.799 86.9157 355.548 114.636 368.982 147.068C382.416 179.501 385.931 215.188 379.082 249.618C372.234 284.048 355.329 315.674 330.507 340.497C325.625 345.378 317.711 345.378 312.829 340.497C307.948 335.615 307.948 327.701 312.829 322.819C334.155 301.493 348.679 274.322 354.563 244.741C360.447 215.161 357.427 184.5 345.885 156.636C334.343 128.771 314.798 104.955 289.721 88.1995C264.644 71.4435 235.161 62.5 205.001 62.5Z" fill="#FF342A"/>
<path d="M130.469 318.074C131.758 316.512 133.542 315.73 135.82 315.73C137.643 315.73 139.173 316.154 140.41 317C141.647 317.833 142.572 318.979 143.184 320.438C143.652 321.544 143.887 322.885 143.887 324.461V337H140.488V324.559C140.488 322.866 140.052 321.512 139.18 320.496C138.307 319.48 137.083 318.973 135.508 318.973C134.362 318.973 133.398 319.253 132.617 319.812C131.836 320.372 131.263 321.128 130.898 322.078C130.612 322.781 130.469 323.608 130.469 324.559V337H127.09V308.445H130.469V318.074ZM165.117 332.02C164.388 333.712 163.34 335.047 161.973 336.023C160.618 337 158.932 337.488 156.914 337.488C155.794 337.488 154.766 337.326 153.828 337C152.891 336.674 152.077 336.219 151.387 335.633C150.71 335.034 150.13 334.363 149.648 333.621C149.167 332.866 148.776 332.033 148.477 331.121C148.034 329.793 147.812 328.322 147.812 326.707C147.812 324.233 148.268 322.117 149.18 320.359C150.104 318.589 151.406 317.306 153.086 316.512C154.167 316.004 155.352 315.75 156.641 315.75C157.76 315.75 158.783 315.926 159.707 316.277C160.632 316.629 161.419 317.124 162.07 317.762C162.721 318.387 163.268 319.09 163.711 319.871C164.167 320.652 164.544 321.518 164.844 322.469C165.273 323.927 165.488 325.587 165.488 327.449H151.289C151.315 329.533 151.797 331.206 152.734 332.469C153.685 333.719 155.098 334.344 156.973 334.344C159.277 334.344 160.911 333.25 161.875 331.062L165.117 332.02ZM161.738 324.383C161.309 321.714 160.221 320.008 158.477 319.266C157.917 319.031 157.324 318.914 156.699 318.914C155.618 318.914 154.694 319.214 153.926 319.812C153.171 320.398 152.578 321.16 152.148 322.098C151.823 322.775 151.608 323.536 151.504 324.383H161.738ZM169.668 337.02V308.543H173.047V337.02H169.668ZM185.508 337.488C184.492 337.488 183.548 337.293 182.676 336.902C181.803 336.512 181.068 335.997 180.469 335.359V345.535H177.09V316.18H180.273L180.41 317.957C181.413 316.473 182.988 315.73 185.137 315.73C186.23 315.73 187.233 315.9 188.145 316.238C189.056 316.577 189.844 317.052 190.508 317.664C191.172 318.263 191.732 318.94 192.188 319.695C192.656 320.451 193.034 321.284 193.32 322.195C193.763 323.549 193.984 325.053 193.984 326.707C193.984 329.168 193.529 331.277 192.617 333.035C191.719 334.78 190.443 336.03 188.789 336.785C187.76 337.254 186.667 337.488 185.508 337.488ZM180.469 328.758C180.469 330.008 180.742 331.089 181.289 332C181.836 332.911 182.565 333.569 183.477 333.973C184.036 334.22 184.59 334.344 185.137 334.344C187.598 334.344 189.245 332.905 190.078 330.027C190.352 329.077 190.488 327.97 190.488 326.707C190.488 325.001 190.202 323.517 189.629 322.254C189.056 320.991 188.236 320.06 187.168 319.461C186.517 319.109 185.827 318.934 185.098 318.934C184.733 318.934 184.388 318.973 184.062 319.051C183.737 319.116 183.438 319.22 183.164 319.363C182.891 319.493 182.637 319.65 182.402 319.832C182.168 320.014 181.953 320.223 181.758 320.457C181.576 320.678 181.406 320.919 181.25 321.18C181.107 321.427 180.977 321.694 180.859 321.98C180.599 322.658 180.469 323.439 180.469 324.324V328.758ZM212.363 316.375L216.777 332.586L220.918 316.375H224.59L218.555 337.02H215L210.723 321.141L206.504 337.02H202.949L196.895 316.375H200.586L204.727 332.586L209.141 316.375H212.363ZM235.684 318.758C233.522 318.758 232.188 319.852 231.68 322.039L228.301 321.121C228.861 319.467 229.779 318.152 231.055 317.176C232.331 316.199 233.952 315.711 235.918 315.711C237.168 315.711 238.294 315.919 239.297 316.336C240.312 316.74 241.152 317.293 241.816 317.996C242.48 318.686 243.008 319.513 243.398 320.477C243.841 321.544 244.062 322.807 244.062 324.266V337.02H240.742L240.586 334.93C239.036 336.596 237.083 337.43 234.727 337.43C233.086 337.43 231.673 337.091 230.488 336.414C229.316 335.724 228.457 334.786 227.91 333.602C227.546 332.794 227.363 331.902 227.363 330.926C227.363 330.027 227.507 329.207 227.793 328.465C228.079 327.71 228.477 327.065 228.984 326.531C229.492 325.984 230.059 325.529 230.684 325.164C231.322 324.786 232.012 324.487 232.754 324.266C233.796 323.953 234.863 323.797 235.957 323.797C237.624 323.797 239.121 324.135 240.449 324.812V324.227C240.449 322.482 240.059 321.134 239.277 320.184C238.496 319.233 237.298 318.758 235.684 318.758ZM236.055 326.844C234.531 326.844 233.307 327.176 232.383 327.84C231.471 328.491 231.016 329.487 231.016 330.828C231.016 333.146 232.493 334.305 235.449 334.305C236.595 334.305 237.565 334.038 238.359 333.504C239.167 332.957 239.746 332.234 240.098 331.336C240.332 330.724 240.449 330.066 240.449 329.363V327.957C239.421 327.215 237.956 326.844 236.055 326.844ZM256.68 332.801L262.52 316.355H266.211L258.438 337H254.922L247.109 316.355H250.801L256.68 332.801ZM286.602 332.02C285.872 333.712 284.824 335.047 283.457 336.023C282.103 337 280.417 337.488 278.398 337.488C277.279 337.488 276.25 337.326 275.312 337C274.375 336.674 273.561 336.219 272.871 335.633C272.194 335.034 271.615 334.363 271.133 333.621C270.651 332.866 270.26 332.033 269.961 331.121C269.518 329.793 269.297 328.322 269.297 326.707C269.297 324.233 269.753 322.117 270.664 320.359C271.589 318.589 272.891 317.306 274.57 316.512C275.651 316.004 276.836 315.75 278.125 315.75C279.245 315.75 280.267 315.926 281.191 316.277C282.116 316.629 282.904 317.124 283.555 317.762C284.206 318.387 284.753 319.09 285.195 319.871C285.651 320.652 286.029 321.518 286.328 322.469C286.758 323.927 286.973 325.587 286.973 327.449H272.773C272.799 329.533 273.281 331.206 274.219 332.469C275.169 333.719 276.582 334.344 278.457 334.344C280.762 334.344 282.396 333.25 283.359 331.062L286.602 332.02ZM283.223 324.383C282.793 321.714 281.706 320.008 279.961 319.266C279.401 319.031 278.809 318.914 278.184 318.914C277.103 318.914 276.178 319.214 275.41 319.812C274.655 320.398 274.062 321.16 273.633 322.098C273.307 322.775 273.092 323.536 272.988 324.383H283.223Z" fill="white"/>
</svg>
